<?xml version="1.0" standalone="no"?><!DOCTYPE svg PUBLIC "-//W3C//DTD SVG 1.1//EN" "http://www.w3.org/Graphics/SVG/1.1/DTD/svg11.dtd"><svg t="1580891790506" class="icon" viewBox="0 0 1024 1024" version="1.1" xmlns="http://www.w3.org/2000/svg" p-id="5038" xmlns:xlink="http://www.w3.org/1999/xlink" width="200" height="200"><defs><style type="text/css"></style></defs><path d="M826.88 974.848H226.816c-91.136 0-164.864-73.728-164.864-164.864V256.512c0-91.136 73.728-164.864 164.864-164.864h600.064c91.136 0 164.864 73.728 164.864 164.864v553.472c0 91.136-73.728 164.864-164.864 164.864z" fill="#FFFFFF" p-id="5039"></path><path d="M991.744 689.152V216.576c0-101.888-82.432-184.32-184.32-184.32H216.576c-101.888 0-184.32 82.432-184.32 184.32v590.336c0 101.888 82.432 184.32 184.32 184.32h590.336c90.624 0 166.4-65.536 181.76-152.064-49.152-20.992-261.12-112.64-371.2-165.376-83.968 101.888-172.032 162.816-304.64 162.816s-221.184-81.92-210.432-181.76c7.168-65.536 52.224-173.056 247.808-154.624 102.912 9.728 150.016 28.672 234.496 56.832 22.016-39.936 39.936-83.968 53.76-130.56h-373.76v-36.864h184.32v-66.56H224.256v-40.448h224.768V187.392s2.048-14.848 18.432-14.848h92.16v110.592h239.616v40.448h-239.616v66.56h195.584c-17.92 73.216-45.056 140.288-79.36 199.168 57.344 20.48 315.904 99.84 315.904 99.84z" fill="#009EFF" p-id="5040"></path><path d="M297.984 774.144c-140.288 0-162.304-88.576-155.136-125.44 7.168-36.864 48.128-84.992 125.952-84.992 89.6 0 169.984 23.04 266.24 69.632-67.584 88.064-150.528 140.8-237.056 140.8z" fill="#009EFF" p-id="5041"></path></svg>