<?xml version="1.0" standalone="no"?><!DOCTYPE svg PUBLIC "-//W3C//DTD SVG 1.1//EN" "http://www.w3.org/Graphics/SVG/1.1/DTD/svg11.dtd"><svg t="1580891816862" class="icon" viewBox="0 0 1024 1024" version="1.1" xmlns="http://www.w3.org/2000/svg" p-id="5278" xmlns:xlink="http://www.w3.org/1999/xlink" width="200" height="200"><defs><style type="text/css"></style></defs><path d="M848.923109 1023.803228H174.310965C99.773839 1023.803228 39.364923 962.685934 39.364923 887.283013V204.721291c0-75.363566 60.408916-136.520215 134.946042-136.520215h67.453343V34.080861c0-18.85073 15.112068-34.120215 33.726672-34.120215s33.726672 15.269485 33.726672 34.120215v34.120215h404.79877V34.080861c0-18.85073 15.112068-34.120215 33.726672-34.120215s33.726672 15.269485 33.726672 34.120215v34.120215h67.453343C923.460234 68.201076 983.869151 129.357725 983.869151 204.721291v682.561722c0 75.402921-60.408916 136.520215-134.946042 136.520215z m67.492698-819.081937c0-37.70146-30.224135-68.24043-67.492698-68.24043h-67.453343v34.120215a33.923444 33.923444 0 0 1-33.726672 34.120215 33.923444 33.923444 0 0 1-33.726672-34.120215v-34.120215H309.217652v34.120215A33.923444 33.923444 0 0 1 275.49098 204.721291a33.923444 33.923444 0 0 1-33.726672-34.120215v-34.120215H174.310965c-37.268563 0-67.492698 30.53897-67.492698 68.24043v682.561722c0 37.70146 30.224135 68.279785 67.492698 68.279785h674.612144c37.268563 0 67.492698-30.578324 67.492698-68.279785V204.721291z m-134.946041 511.921292h-67.453344a33.923444 33.923444 0 0 1-33.726672-34.120216c0-18.85073 15.112068-34.120215 33.726672-34.120215h67.453344c18.653958 0 33.726672 15.269485 33.726671 34.120215a33.884089 33.884089 0 0 1-33.726671 34.120216z m0-204.760646h-67.453344a33.923444 33.923444 0 0 1-33.726672-34.120215c0-18.85073 15.112068-34.120215 33.726672-34.120215h67.453344c18.653958 0 33.726672 15.269485 33.726671 34.120215a33.884089 33.884089 0 0 1-33.726671 34.120215z m-236.126057 204.760646h-67.453344a33.884089 33.884089 0 0 1-33.726672-34.120216c0-18.85073 15.072713-34.120215 33.726672-34.120215h67.453344c18.614604 0 33.726672 15.269485 33.726671 34.120215a33.923444 33.923444 0 0 1-33.726671 34.120216z m0-204.760646h-67.453344a33.884089 33.884089 0 0 1-33.726672-34.120215c0-18.85073 15.072713-34.120215 33.726672-34.120215h67.453344c18.614604 0 33.726672 15.269485 33.726671 34.120215a33.923444 33.923444 0 0 1-33.726671 34.120215z m-241.793083 22.786164a35.851806 35.851806 0 0 1-14.364335 8.618602 32.664105 32.664105 0 0 1-35.89116-6.965719l-69.342352-70.247502a33.451191 33.451191 0 0 1 1.377402-45.414912 32.506687 32.506687 0 0 1 44.903305-1.377402l41.951729 42.502691 108.932821-110.349578a36.402767 36.402767 0 0 1 51.750961 0 37.386626 37.386626 0 0 1 0 52.341276l-129.318371 130.892544z m-61.786318 113.734051h67.453344c18.653958 0 33.726672 15.269485 33.726672 34.120215a33.884089 33.884089 0 0 1-33.726672 34.120216H241.764308a33.884089 33.884089 0 0 1-33.726672-34.120216c0-18.85073 15.072713-34.120215 33.726672-34.120215z" fill="#0079FE" p-id="5279"></path></svg>