<?xml version="1.0" standalone="no"?><!DOCTYPE svg PUBLIC "-//W3C//DTD SVG 1.1//EN" "http://www.w3.org/Graphics/SVG/1.1/DTD/svg11.dtd"><svg t="1580895083571" class="icon" viewBox="0 0 1024 1024" version="1.1" xmlns="http://www.w3.org/2000/svg" p-id="6604" xmlns:xlink="http://www.w3.org/1999/xlink" width="200" height="200"><defs><style type="text/css"></style></defs><path d="M934.784 914.432h73.7024c8.576 0 15.5136 6.912 15.5136 15.488v8.6272a15.5136 15.5136 0 0 1-15.5136 15.5136H15.5136A15.5136 15.5136 0 0 1 0 938.5472v-8.6272c0-8.5504 6.9376-15.5136 15.5136-15.5136h89.216V137.216c0-37.12 29.4912-67.2512 65.9456-67.2512h372.352c36.4544 0 65.9456 30.1312 65.9456 67.2256v250.0096h259.8656c36.4544 0 65.9456 30.1312 65.9456 67.2256v460.032z m-38.784 0V454.4c0-15.4624-12.1856-27.904-27.136-27.904H608.9472v487.936H896z m-325.8112 0V137.1392c0-15.4624-12.2112-27.9296-27.136-27.9296H170.6496c-14.976 0-27.136 12.4672-27.136 27.9296V914.432h426.6496zM268.032 311.6288h177.5616a19.84 19.84 0 0 1 0 39.6544h-177.5616a19.84 19.84 0 0 1 0-39.68z m0 142.7456h177.5616a19.84 19.84 0 0 1 0 39.68h-177.5616a19.84 19.84 0 0 1 0-39.68z m449.9456 126.8992h84.48a19.84 19.84 0 0 1 0 39.68h-84.48a19.84 19.84 0 0 1 0-39.68z m-449.9456 15.872h177.5616a19.84 19.84 0 0 1 0 39.6544h-177.5616a19.84 19.84 0 0 1 0-39.6544z m449.9456 126.8992h84.48a19.84 19.84 0 0 1 0 39.6544h-84.48a19.84 19.84 0 0 1 0-39.68z" fill="#D3A573" p-id="6605"></path></svg>