<?xml version="1.0" standalone="no"?><!DOCTYPE svg PUBLIC "-//W3C//DTD SVG 1.1//EN" "http://www.w3.org/Graphics/SVG/1.1/DTD/svg11.dtd"><svg t="1580892017996" class="icon" viewBox="0 0 1055 1024" version="1.1" xmlns="http://www.w3.org/2000/svg" p-id="5637" xmlns:xlink="http://www.w3.org/1999/xlink" width="206.0546875" height="200"><defs><style type="text/css"></style></defs><path d="M932.94868944 1018.44517557l-811.51390065 0c-63.97408187 0-115.88367956-51.84520756-115.88367958-115.88491817l0-550.59514339c0-42.8454476 23.54202646-79.95150475 58.23592989-99.90625682 0-0.13125724-0.13125724-0.19440912-0.13125726-0.32690366-4.17173842-15.45487253 798.34240238-246.17960682 798.34240237-246.17960689 33.06309942 0 44.28060508 30.97661097 41.99723075 56.34508818l0 174.118371 28.95451289 0c63.97408187 0 115.88491813 51.90959782 115.88491802 115.88367956L1048.83484596 525.76029647l0 231.89490139 0 144.9038211C1048.83360741 966.59996787 996.92277124 1018.44517557 932.94868944 1018.44517557M841.06767328 77.41298312l-536.91966714 158.6684523 536.91966714 0 0-166.09808319L841.06767328 77.41298312zM983.785944 583.63836571l-195.74107582 0.15973721 0 115.88491809 195.74107582-0.16221405L983.785944 583.63836571zM984.25029637 762.87080032L781.85598565 762.87080032c-31.62670347 0-57.14377379-25.51954617-57.14377393-57.14625067l0.15478446-127.90482364c0-31.5610749 25.4551559-57.20940256 57.14377385-57.20940248l202.39431077 0-0.1671667-164.71121936c0-31.56231333-25.52202292-57.14748808-57.14625069-57.14748811l-799.86052349 0c-31.56355166 0-57.14748808 25.52078451-57.14748814 57.14748811l0 542.73211586c0 31.5610749 25.58393639 57.14625064 57.14748814 57.14625058l799.86052349 0c31.5610749 0 57.14625064-25.51954617 57.14625069-57.14625058l0-142.83466893L984.25029637 762.87080032z" fill="#10aeff" p-id="5638"></path></svg>