<?xml version="1.0" standalone="no"?><!DOCTYPE svg PUBLIC "-//W3C//DTD SVG 1.1//EN" "http://www.w3.org/Graphics/SVG/1.1/DTD/svg11.dtd"><svg t="1580891998781" class="icon" viewBox="0 0 1024 1024" version="1.1" xmlns="http://www.w3.org/2000/svg" p-id="5397" xmlns:xlink="http://www.w3.org/1999/xlink" width="200" height="200"><defs><style type="text/css"></style></defs><path d="M347.2896 500.1728c0 34.0992-26.4192 61.6448-59.0336 61.6448-32.5632 0-58.9824-27.5456-58.9824-61.6448 0-33.9968 26.3168-61.5936 58.88-61.6448 32.5632-0.1024 59.0848 27.4944 59.136 61.5424v0.1024z" fill="#009CE6" p-id="5398"></path><path d="M260.7616 807.7824c-129.3824-76.288-206.592-204.032-206.592-341.8624 0-225.6896 205.4144-408.9856 457.8304-408.9856 252.3648 0 457.8304 183.552 457.8304 408.9856 0 225.3824-205.4656 408.9344-457.8304 408.9344a512.512 512.512 0 0 1-108.6464-12.032 25.4976 25.4976 0 0 0-20.5312 4.2496L296.96 926.8224a20.2752 20.2752 0 0 0-2.816 2.2528l-19.6608 13.824v-110.592a28.5184 28.5184 0 0 0-13.824-24.576v0.0512zM1024 466.0224C1024 208.9984 794.3168 0 512 0 229.632 0 0 208.9984 0 466.0224c0 152.9344 82.3296 295.5776 220.16 382.6688v146.8928a28.2624 28.2624 0 0 0 27.2896 28.416 26.2144 26.2144 0 0 0 14.848-4.7616l64.8704-44.2368a17.0496 17.0496 0 0 0 3.2256-2.4064l73.216-51.0464c35.84 7.168 72.1408 10.9056 108.544 11.0592 282.1632 0 511.8464-209.0496 511.8464-465.92v-0.6656z" fill="#009CE6" p-id="5399"></path><path d="M811.8784 482.816c0.1024 34.0992-26.2656 61.7472-58.88 61.7984-32.6656 0.0512-59.136-27.4944-59.136-61.5936-0.0512-33.9968 26.2656-61.7472 58.88-61.7984h0.1024c32.5632 0.0512 58.9824 27.5968 59.0336 61.5936m-230.912 0c0.1024 34.1504-26.3168 61.8496-58.9312 62.0032-32.6144 0.1536-59.1872-27.392-59.3408-61.5936-0.1024-34.048 26.3168-61.8496 58.9312-62.0032h0.2048c32.5632 0.0512 58.9824 27.5968 59.136 61.5936" fill="#009CE6" p-id="5400"></path></svg>