<?xml version="1.0" standalone="no"?><!DOCTYPE svg PUBLIC "-//W3C//DTD SVG 1.1//EN" "http://www.w3.org/Graphics/SVG/1.1/DTD/svg11.dtd"><svg t="1580895208531" class="icon" viewBox="0 0 1024 1024" version="1.1" xmlns="http://www.w3.org/2000/svg" p-id="6723" xmlns:xlink="http://www.w3.org/1999/xlink" width="200" height="200"><defs><style type="text/css"></style></defs><path d="M392.304 407.328l0 236.944c-1.336 34.824 0 66.912 3.984 96.376l-43.808 0c0-10.728 0-26.104 0-46.176 1.304-22.752 1.992-40.16 1.992-52.2L354.472 477.6c-5.32 9.384-9.952 18.072-13.936 26.104-6.656 14.744-13.936 28.8-21.904 42.168-7.96-17.384-17.92-30.12-29.864-38.152 49.088-78.968 84.28-154.616 105.528-226.896 5.288 2.696 11.264 4.704 17.92 6.024 22.56 5.368 33.168 9.384 31.856 12.048 0 2.696-1.992 6.024-5.976 10.04C432.784 315.648 417.504 348.432 392.304 407.328zM487.88 451.504l0 50.2c29.176 1.344 57.736 0 85.616-4.016l0 38.152c-7.96 0-17.256 0-27.872 0-6.656-1.32-25.88-2.008-57.736-2.008l0 58.224c15.928 0 38.48 0 67.696 0 9.264-1.32 15.24-2.008 17.912-2.008l0 38.152c-19.904-1.312-48.472-2.664-85.616-4.016l0 38.16c-1.336 37.464-0.68 61.552 1.992 72.28l-41.816 0c0-9.376 0-18.76 0-28.112 1.312-8.032 1.992-23.408 1.992-46.176L450.048 385.24c0-22.744-0.68-38.152-1.992-46.184 0-9.344 0-17.384 0-24.096-1.336-1.32-0.68-2.008 1.992-2.008 2.648 0 7.968 0.688 15.928 2.008 19.912 0 38.488 0 55.752 0 13.248 0 27.872 0 43.808 0 9.272-1.32 16.576-2.008 21.896-2.008 3.984 0 5.288 1.344 3.984 4.016-1.336 1.344-1.992 2.696-1.992 4.016-2.672 17.408-3.328 38.152-1.992 62.248-1.336 28.112 0 50.2 3.984 66.264-1.336 4.016-2.672 5.36-3.984 4.016-6.656 0-15.92 0-27.872 0C551.592 452.192 527.696 451.504 487.88 451.504zM553.584 347.088l-65.704 0 0 74.296 65.704 0L553.584 347.088zM583.456 561.936l39.824-8.032c2.64 18.76 11.256 44.864 25.88 78.304 17.232-25.408 32.504-59.544 45.8-102.4-42.504 0-67.696 0.688-75.664 2.008-11.944 0-21.896 0-29.864 0l0-42.168c18.576 2.696 43.808 4.016 75.664 4.016 42.472 0 69-1.32 79.64-4.016 1.312 1.344 1.992 2.696 1.992 4.016-23.888 81.664-47.784 136.536-71.68 164.656 19.912 17.416 51.088 31.472 93.584 42.168-13.288 8.032-23.24 22.088-29.864 42.168-27.872-14.744-57.096-34.136-87.608-58.224-15.928 10.696-31.856 20.736-47.792 30.12-9.296 6.688-23.888 16.728-43.808 30.12-9.304-9.376-23.888-20.08-43.8-32.128 43.8-12.048 80.952-30.776 111.504-56.216C615.304 637.576 600.688 606.112 583.456 561.936zM609.336 455.512 609.336 417.36l1.992 2.008c18.568 0 45.112 0 79.64 0l0-74.296c-18.6 1.344-35.184 2.008-49.776 2.008-13.288 0-23.24 0-29.864 0l0-40.16c7.96 2.696 27.184 4.016 57.744 4.016 35.832 1.344 57.056 0.688 63.712-2.008-1.336 16.064-1.992 39.504-1.992 70.28-1.336 48.184-0.68 73.632 1.992 76.304-7.96 0-17.92 0-29.864 0-10.64 0-22.584-0.664-35.832-2.008-11.944 1.344-23.24 2.008-33.848 2.008C622.584 455.512 614.624 455.512 609.336 455.512z" fill="#1296db" p-id="6724"></path><path d="M922.936 848.416c-20.544-10.8-39.6-22.768-56.592-35.168-35.44 29.04-80.744 46.48-130.128 46.48-47.432 0-90.552-16.728-125.336-43.712-28.608 62.816-96.184 106.976-175.048 106.976-104.784 0-189.712-77.888-189.712-173.976 0-9.768 1.448-19.168 3.128-28.464C155.752 690.856 88.032 609.104 88.032 511.76c0-96.768 66.88-178.168 159.52-208.288-0.32-4.416-1.432-8.632-1.432-13.144 0-104.832 92-189.808 205.52-189.808 83.576 0 155.168 46.248 187.304 112.376 24.752-10.864 52.168-17.464 81.464-17.464 104.784 0 189.728 77.88 189.728 173.968 0 46.456-20.152 88.392-52.48 119.6 50.768 37.44 84.088 97.168 84.088 165.12 0 19.52-2.784 38.384-7.856 56.28 8.832 3.92 17.8 8.184 26.88 12.96 13.848 7.28 26.952 15.12 39.288 23.232 6.472-21.792 9.992-44.848 9.992-68.76 0-79.256-38.68-148.96-97.536-192.64 37.488-36.392 60.856-85.336 60.856-139.504 0-112.104-98.544-202.984-220.072-202.984-33.984 0-65.776 7.696-94.512 20.384C621.504 85.936 538.472 32 441.52 32 309.856 32 203.128 131.128 203.128 253.408c0 5.264 1.272 10.184 1.664 15.344C97.32 303.904 19.728 398.848 19.728 511.76c0 113.584 78.536 208.936 187.016 243.576-1.96 10.856-3.624 21.832-3.624 33.2 0 112.104 98.528 202.992 220.064 202.992 91.48 0 169.856-51.544 203.064-124.824 40.344 31.504 90.376 51 145.384 51 62.552 0 119.456-24.272 161.984-63.936C930.072 852.024 926.52 850.296 922.936 848.416z" fill="#1296db" p-id="6725"></path></svg>