<?xml version="1.0" standalone="no"?><!DOCTYPE svg PUBLIC "-//W3C//DTD SVG 1.1//EN" "http://www.w3.org/Graphics/SVG/1.1/DTD/svg11.dtd"><svg t="1580892026883" class="icon" viewBox="0 0 1024 1024" version="1.1" xmlns="http://www.w3.org/2000/svg" p-id="5756" xmlns:xlink="http://www.w3.org/1999/xlink" width="200" height="200"><defs><style type="text/css"></style></defs><path d="M508.639 161.923c-9.079-5.76-19.263-8.739-29.675-8.739-12.767 0-25.28 4.596-35.266 12.88L237.865 336.718H64.317v376.94h197.01l182.456 151.218c9.419 8.087 22.129 12.796 35.152 12.796 10.299 0 20.399-2.923 29.194-8.398 17.391-11.15 27.492-30.117 27.492-51.011V212.622c0.028-20.881-10.072-39.833-26.982-50.699z m-16.767 656.368c0 5.787-2.667 11.136-6.894 13.845-1.9 1.193-3.915 1.774-6.014 1.774-2.526 0-5.078-0.866-7.235-2.738L277.13 669.881H110.619V380.523h143.049l218.061-180.781c2.157-1.816 4.709-2.738 7.235-2.738 2.099 0 4.114 0.61 6.014 1.816 4.227 2.709 6.894 8.043 6.894 13.83v605.641zM676.654 286.557c-9.419-7.574-23.207-6.07-30.753 3.363-7.576 9.433-6.072 23.194 3.347 30.768 61.226 49.168 96.321 120.152 96.321 194.77 0 77.07-37.024 149.601-101.626 198.952-9.618 7.334-11.463 21.095-4.114 30.683 4.313 5.646 10.809 8.596 17.392 8.596 4.653 0 9.305-1.474 13.277-4.51 75.524-57.708 118.848-142.906 118.848-233.751 0-87.951-41.054-171.362-112.692-228.871z" fill="#f56d36" p-id="5757"></path><path d="M777.315 201.585c-10.781-5.575-23.974-1.39-29.505 9.334-5.59 10.725-1.39 23.945 9.305 29.507 97.086 50.443 159.816 158.368 159.816 275.002 0 120.578-65.709 230.048-167.448 278.889-10.895 5.221-15.491 18.3-10.242 29.194 3.774 7.844 11.605 12.413 19.747 12.413a21.73 21.73 0 0 0 9.477-2.17C885.24 777.65 960.736 652.703 960.736 515.399c-0.029-132.748-72.006-255.922-183.421-313.814z" fill="#f56d36" p-id="5758"></path></svg>