<?xml version="1.0" standalone="no"?><!DOCTYPE svg PUBLIC "-//W3C//DTD SVG 1.1//EN" "http://www.w3.org/Graphics/SVG/1.1/DTD/svg11.dtd"><svg t="1580891801048" class="icon" viewBox="0 0 1321 1024" version="1.1" xmlns="http://www.w3.org/2000/svg" p-id="5159" xmlns:xlink="http://www.w3.org/1999/xlink" width="258.0078125" height="200"><defs><style type="text/css"></style></defs><path d="M1253.838452 905.116903H67.451871c-32.04129 0-58.235871 26.657032-58.235871 59.458065 0 32.768 26.194581 59.425032 58.235871 59.425032h1186.386581c32.04129 0 58.235871-26.657032 58.235871-59.458065 0-32.768-26.194581-59.425032-58.235871-59.425032zM58.235871 854.214194h1204.818581c32.04129 0 58.235871-26.657032 58.235871-59.458065 0-32.768-26.194581-59.458065-58.235871-59.458064h-15.06271c-9.810581-250.483613-183.461161-461.460645-419.146323-530.432 1.684645-9.843613 2.642581-19.819355 2.642581-30.092388C831.454968 78.187355 754.952258 0 660.645161 0s-170.809806 78.286452-170.809806 174.839742c0 10.306065 0.924903 20.149677 2.609548 29.960258C256.759742 273.771355 83.076129 484.781419 73.298581 735.298065h-15.06271c-32.04129 0-58.235871 26.657032-58.235871 59.458064 0 32.768 26.227613 59.425032 58.235871 59.425032zM660.645161 82.877935c49.647484 0 89.913806 41.158194 89.913807 91.994839 0 4.294194-0.330323 8.588387-0.891871 12.750452a603.400258 603.400258 0 0 0-178.043871 0 94.637419 94.637419 0 0 1-0.891871-12.783484c0-50.803613 40.266323-91.994839 89.913806-91.994839zM277.371871 589.163355c55.890581-111.31871 149.966452-187.953548 252.961032-212.39742 34.584774-8.192 51.100903 2.708645 58.434065 29.629936 7.267097 26.92129-5.450323 46.245161-35.212387 56.088774-86.940903 28.738065-156.275613 87.271226-198.589936 166.746839-11.56129 21.768258-36.698839 25.30271-57.872516 14.369032-21.140645-10.900645-30.653935-32.668903-19.720258-54.437161z" fill="#FC6C3E" p-id="5160"></path></svg>