<?xml version="1.0" standalone="no"?><!DOCTYPE svg PUBLIC "-//W3C//DTD SVG 1.1//EN" "http://www.w3.org/Graphics/SVG/1.1/DTD/svg11.dtd"><svg t="1580892032232" class="icon" viewBox="0 0 1024 1024" version="1.1" xmlns="http://www.w3.org/2000/svg" p-id="5876" xmlns:xlink="http://www.w3.org/1999/xlink" width="200" height="200"><defs><style type="text/css"></style></defs><path d="M381.568442 993.310222c-10.229926 0-20.459852-5.114963-28.132296-12.787408-94.626816-107.414224-248.075707-107.414224-253.190671-107.414224-20.459852 0-35.804741-15.344889-35.804741-35.804741 0-20.459852 15.344889-35.804741 35.804741-35.804741 7.672445 0 189.253632 0 306.897783 132.989039 12.787408 15.344889 12.787408 38.362223-2.557482 51.14963-5.114963 2.557482-15.344889 7.672445-23.017334 7.672445z m245.518226 0c-7.672445 0-17.902371-2.557482-25.574815-10.229926-15.344889-12.787408-15.344889-35.804741-2.557481-51.149631 122.759113-132.989039 299.225338-132.989039 306.897782-130.431557 20.459852 0 35.804741 17.902371 35.804741 35.804741 0 20.459852-15.344889 35.804741-35.804741 35.804741-2.557482 0-153.448891 0-253.19067 107.414224-7.672445 7.672445-15.344889 12.787408-25.574816 12.787408z m-63.937038-186.696151H448.062962c-2.557482 0-7.672445 0-10.229926-2.557482-122.759113-15.344889-230.173337-86.954372-296.667856-202.04104-79.281927-132.989039-97.184298-306.897782-46.034668-432.214377 5.114963-12.787408 17.902371-23.017334 33.24726-23.017333h10.229926c69.052001 0 135.546521 12.787408 194.368596 38.362222 43.477186-79.281927 92.069335-138.104002 145.776446-176.466224 2.557482-2.557482 5.114963-5.114963 10.229926-5.114964 10.229926-5.114963 25.574815-5.114963 35.804742 2.557482 2.557482 0 2.557482 2.557482 5.114963 5.114963 53.707112 40.919704 102.299261 97.184298 145.776446 179.023706 61.379556-28.132297 127.874076-40.919704 199.483559-40.919704h10.229926c15.344889 0 28.132297 10.229926 33.24726 23.017334 51.14963 125.316594 33.24726 296.667856-46.034668 432.214377-69.052001 115.086668-173.908743 186.696151-296.667856 202.04104h-12.787408z m-109.971705-74.166964h104.856742c132.989039-15.344889 207.156003-99.741779 248.075708-168.793781 61.379556-104.856742 79.281927-242.960744 48.592149-342.702523-66.49452 2.557482-127.874076 17.902371-181.581188 48.592149-7.672445 5.114963-20.459852 5.114963-28.132297 2.557481-10.229926-2.557482-17.902371-10.229926-23.017334-17.902371-38.362223-76.724446-76.724446-130.431558-120.201631-168.79378-43.477186 38.362223-84.39689 94.626816-120.201632 168.79378-5.114963 7.672445-12.787408 15.344889-23.017333 17.902371-10.229926 2.557482-20.459852 2.557482-28.132297-2.557481C276.7117 238.853173 217.889625 223.508284 153.952587 220.950803c-33.24726 102.299261-12.787408 237.845781 48.592149 342.702523 38.362223 69.052001 115.086668 153.448891 250.633189 168.793781-2.557482 0-2.557482 0 0 0z m51.14963 291.552893c-20.459852 0-35.804741-15.344889-35.804741-35.804741V768.251848c0-20.459852 15.344889-35.804741 35.804741-35.804741 20.459852 0 35.804741 15.344889 35.804742 35.804741v217.385929c0 23.017334-15.344889 38.362223-35.804742 38.362223z" fill="#01A2E4" p-id="5877"></path></svg>