<?xml version="1.0" standalone="no"?><!DOCTYPE svg PUBLIC "-//W3C//DTD SVG 1.1//EN" "http://www.w3.org/Graphics/SVG/1.1/DTD/svg11.dtd"><svg t="1580892071636" class="icon" viewBox="0 0 1024 1024" version="1.1" xmlns="http://www.w3.org/2000/svg" p-id="6234" xmlns:xlink="http://www.w3.org/1999/xlink" width="200" height="200"><defs><style type="text/css"></style></defs><path d="M1024.500764 380.30709l-159.608802-122.178973V0h-704.782396v257.752567L0.000031 380.30709l0.500733 0.625917V823.706601c0 110.161369 90.132029 200.293399 200.293399 200.293399h623.413203c110.161369 0 200.293399-90.132029 200.293398-200.293399V380.557457h-0.250367l0.250367-0.250367zM222.701253 62.591687h579.599022v428.127139l-46.818582 23.284108-242.980929 120.551589-242.980929-120.551589-46.818582-23.284108V62.591687z m-62.591687 273.901223v123.18044l-97.517848-48.445966 97.517848-74.734474zM961.909077 823.706601c0 36.553545-14.396088 71.104156-40.559413 97.142299-26.038142 26.163325-60.588753 40.559413-97.142298 40.559413h-623.413203c-36.553545 0-71.104156-14.396088-97.142299-40.559413-26.163325-26.163325-40.559413-60.588753-40.559413-97.142299V481.455257l178.261125 88.504645L512.500764 704.782396l271.147188-134.822494 178.261125-88.504645V823.706601z m-97.017115-364.033251v-122.80489l97.267482 74.484107-97.267482 48.320783z" fill="#0195ff" p-id="6235"></path><path d="M374.799053 252.745232h274.902689c17.275306 0 31.295844-14.020538 31.295844-31.295843s-14.020538-31.295844-31.295844-31.295844H374.799053c-17.275306 0-31.295844 14.020538-31.295844 31.295844s14.145721 31.295844 31.295844 31.295843zM374.799053 402.965281h274.902689c17.275306 0 31.295844-14.020538 31.295844-31.295843s-14.020538-31.295844-31.295844-31.295844H374.799053c-17.275306 0-31.295844 14.020538-31.295844 31.295844s14.145721 31.295844 31.295844 31.295843z" fill="#0195ff" p-id="6236"></path></svg>