<?xml version="1.0" standalone="no"?><!DOCTYPE svg PUBLIC "-//W3C//DTD SVG 1.1//EN" "http://www.w3.org/Graphics/SVG/1.1/DTD/svg11.dtd"><svg t="1580892039386" class="icon" viewBox="0 0 1024 1024" version="1.1" xmlns="http://www.w3.org/2000/svg" p-id="5995" xmlns:xlink="http://www.w3.org/1999/xlink" width="200" height="200"><defs><style type="text/css"></style></defs><path d="M735.641 326.9c-13.558-7.815-27.892-14.329-41.884-21.456 2.763-3.11 5.163-5.294 7.526-7.517 24.283-22.853 46.085-49.292 57.478-80.483 5.524-15.121 6.889-21.7 10.721-35.739 7.135-44.324-1.066-71.274-27.811-93.675-36.143-30.276-77.153-33.861-120.473-16.089-3.006 1.232-5.001 2.132-7.995-0.66-55.757-51.941-145.269-52.426-201.412-1.142-2.623 2.396-4.513 3.002-7.918 1.458-22.782-10.325-46.593-12.535-71.035-7.561-46.316 9.43-84.631 48.246-77.833 101.255 5.899 45.993 23.994 85.793 55.193 120.1 6.403 7.042 13.209 13.73 20.099 20.857-1.717 0.819-3.418 1.677-5.15 2.458-159.359 71.785-267.004 227.76-279.607 405.175-3.486 49.060-5.052 93.058 11.933 145.747 24.005 74.46 87.366 132.553 168.613 132.368 191.465-0.435 382.931 0.044 574.395-0.247 61.507-0.094 108.862-27.289 143.215-76.807 17.463-25.173 23.782-54.129 30.384-83.705 2.691-12.051 5.821 11.526 5.821-39.582 0-51.108-1.066-113.859-15.569-167.181-35.241-129.549-110.709-229.561-228.695-297.577zM930.853 795.729c-4.201 27.358-8.741 56.047-24.162 79.044-30.338 45.241-88.461 70.087-142.778 70.173-169.083 0.265-338.169-0.173-507.251 0.225-71.751 0.169-139.424-39.755-156.817-108.986-11.043-43.953-9.85-98.939-6.772-143.76 11.133-162.087 157.786-314.938 298.515-380.519 1.53-0.713-40.561-37.613-46.217-44.047-27.552-31.343-44.757-56.724-49.966-98.742-6.396-51.587 32.183-66.809 55.529-71.727 21.586-4.548 67.407 18.477 69.724 16.287 49.579-46.853 128.627-46.41 177.867 1.043 2.645 2.551 4.406 1.729 7.060 0.603 38.257-16.237 70.609-26.247 102.528 1.413 23.619 20.467 24.171 35.671 18.378 67.807-3.521 13.338-25.365 48.995-33.706 60.044-30.823 40.83-60.992 66.887-63.071 68.925-0.224 0.219 65.881 31.249 76.933 39.669 102.046 77.741 170.842 137.871 201.962 256.226 16.35 62.181 32.009 122.693 22.242 186.324v0zM450.485 462.953c-7.861-8.297-31.735-32.845-31.735-32.845h-46.829c0 0 0.157 16.007 0.157 20.775s116.745 119.721 116.745 119.721h-116.903v46.763h116.902v47.109h-116.745v46.486h116.916v93.722h46.829l-0.419-93.722h117.492v-46.766h-117.073l-0.419-46.829h117.335v-46.763h-117.335l117.335-119.719v-20.775h-46.672c0 0-40.665 39.334-49.559 49.123-3.708 3.13-30.737 32.003-44.103 45.28l-61.921-61.557z" fill="#d81e06" p-id="5996"></path></svg>